<svg width="17" height="16" viewBox="0 0 17 16" fill="none" xmlns="http://www.w3.org/2000/svg">
<path d="M8.5 12C8.21667 12 7.97933 11.904 7.788 11.712C7.596 11.5207 7.5 11.2834 7.5 11V3.85005L5.625 5.72505C5.425 5.92505 5.19167 6.02505 4.925 6.02505C4.65833 6.02505 4.41667 5.91672 4.2 5.70005C4 5.50005 3.90433 5.26238 3.913 4.98705C3.921 4.71238 4.01667 4.48338 4.2 4.30005L7.8 0.700048C7.9 0.600048 8.00833 0.529049 8.125 0.487049C8.24167 0.445715 8.36667 0.425049 8.5 0.425049C8.63333 0.425049 8.75833 0.445715 8.875 0.487049C8.99167 0.529049 9.1 0.600048 9.2 0.700048L12.8 4.30005C13 4.50005 13.0957 4.73738 13.087 5.01205C13.079 5.28738 12.9833 5.51672 12.8 5.70005C12.6 5.90005 12.3627 6.00405 12.088 6.01205C11.8127 6.02072 11.575 5.92505 11.375 5.72505L9.5 3.85005V11C9.5 11.2834 9.40433 11.5207 9.213 11.712C9.021 11.904 8.78333 12 8.5 12ZM2.5 16C1.95 16 1.47933 15.8044 1.088 15.413C0.696 15.021 0.5 14.55 0.5 14V12C0.5 11.7167 0.595667 11.479 0.787 11.287C0.979 11.0957 1.21667 11 1.5 11C1.78333 11 2.021 11.0957 2.213 11.287C2.40433 11.479 2.5 11.7167 2.5 12V14H14.5V12C14.5 11.7167 14.596 11.479 14.788 11.287C14.9793 11.0957 15.2167 11 15.5 11C15.7833 11 16.0207 11.0957 16.212 11.287C16.404 11.479 16.5 11.7167 16.5 12V14C16.5 14.55 16.3043 15.021 15.913 15.413C15.521 15.8044 15.05 16 14.5 16H2.5Z" fill="#FEFEFE"/>
</svg>
